<svg xmlns="http://www.w3.org/2000/svg" viewBox="0 0 1024 1024" role="img" aria-label="Mahar Shwe Mobile and IT">
  <defs>
    <linearGradient id="green" x1="0" y1="0" x2="1" y2="1">
      <stop offset="0%" stop-color="#4ec78e"/>
      <stop offset="55%" stop-color="#11a36d"/>
      <stop offset="100%" stop-color="#047857"/>
    </linearGradient>
    <linearGradient id="orange" x1="0" y1="0" x2="1" y2="1">
      <stop offset="0%" stop-color="#ffca4b"/>
      <stop offset="45%" stop-color="#ff9500"/>
      <stop offset="100%" stop-color="#f97316"/>
    </linearGradient>
    <linearGradient id="gold" x1="0" y1="0" x2="1" y2="1">
      <stop offset="0%" stop-color="#fff34a"/>
      <stop offset="100%" stop-color="#f4d000"/>
    </linearGradient>
    <filter id="soft" x="-20%" y="-20%" width="140%" height="140%">
      <feDropShadow dx="0" dy="22" stdDeviation="22" flood-color="#000" flood-opacity=".28"/>
    </filter>
  </defs>
  <rect width="1024" height="1024" rx="210" fill="#ffffff"/>
  <path d="M64 172C64 112 112 64 172 64h298c44 0 84 18 113 47l236 236c66 66 66 174 0 240L590 816c-30 30-70 47-113 47H172c-60 0-108-48-108-108z" fill="#4d4c47" opacity=".10"/>
  <path d="M118 160c0-48 39-86 86-86h270c35 0 69 14 94 39l216 216c55 55 55 144 0 199L574 738c-25 25-58 39-94 39H204c-47 0-86-38-86-86z" fill="#4f5a55" opacity=".18"/>
  <g filter="url(#soft)">
    <path d="M150 440V205c0-54 43-98 97-98 31 0 59 14 78 38l177 214 178-214c19-24 48-38 78-38 54 0 98 44 98 98v383c0 54-44 98-98 98s-97-44-97-98V363L538 512c-19 23-47 37-77 37s-58-14-77-37L248 348v92c0 54-44 98-98 98S52 494 52 440z" fill="url(#green)"/>
    <path d="M515 436 680 245c23-27 61-36 94-24 34 13 56 45 56 81v323c0 52-42 94-94 94s-94-42-94-94V513l-67 77c-19 22-47 35-76 35s-57-13-76-35L262 405c-34-39-30-98 9-132s98-30 132 9z" fill="url(#orange)"/>
    <path d="M150 440V205c0-54 43-98 97-98 31 0 59 14 78 38l177 214 178-214c19-24 48-38 78-38 54 0 98 44 98 98v383c0 54-44 98-98 98s-97-44-97-98V363L538 512c-19 23-47 37-77 37s-58-14-77-37L248 348v92c0 54-44 98-98 98S52 494 52 440z" fill="none" stroke="#ffffff" stroke-width="52" stroke-linecap="round" stroke-linejoin="round"/>
    <path d="M515 436 680 245c23-27 61-36 94-24 34 13 56 45 56 81v323c0 52-42 94-94 94s-94-42-94-94V513l-67 77c-19 22-47 35-76 35s-57-13-76-35L262 405c-34-39-30-98 9-132s98-30 132 9z" fill="none" stroke="#ffffff" stroke-width="36" stroke-linecap="round" stroke-linejoin="round"/>
  </g>
  <text x="520" y="706" font-family="Inter,Arial,sans-serif" font-size="88" font-weight="800" fill="#fff21d">Shwe</text>
  <text x="70" y="792" font-family="Inter,Arial,sans-serif" font-size="92" font-weight="900" fill="#13966b">Mobile</text>
  <text x="430" y="792" font-family="Inter,Arial,sans-serif" font-size="92" font-weight="900" fill="url(#gold)">and IT</text>
</svg>
